<?xml version="1.0" encoding="UTF-8" standalone="no"?>
<svg
   xmlns:dc="http://purl.org/dc/elements/1.1/"
   xmlns:cc="http://creativecommons.org/ns#"
   xmlns:rdf="http://www.w3.org/1999/02/22-rdf-syntax-ns#"
   xmlns:svg="http://www.w3.org/2000/svg"
   xmlns="http://www.w3.org/2000/svg"
   viewBox="0 0 576 192"
   height="192"
   width="576"
   xml:space="preserve"
   id="svg2"
   version="1.1"><metadata
     id="metadata8"><rdf:RDF><cc:Work
         rdf:about=""><dc:format>image/svg+xml</dc:format><dc:type
           rdf:resource="http://purl.org/dc/dcmitype/StillImage" /><dc:title></dc:title></cc:Work></rdf:RDF></metadata><defs
     id="defs6"><clipPath
       id="clipPath44"
       clipPathUnits="userSpaceOnUse"><path
         id="path42"
         d="m 88.66,39.25 h 337.86 v 99.27 H 88.66 Z" /></clipPath></defs><g
     transform="matrix(1.3333333,0,0,-1.3333333,0,192)"
     id="g10"><g
       id="g12" /><g
       id="g14" /><g
       id="g16" /><g
       id="g18" /><g
       id="g20" /><g
       id="g22" /><g
       id="g24" /><g
       id="g26" /><g
       id="g28" /><g
       id="g30" /><g
       id="g32"><path
         id="path34"
         style="fill:#ffffff;fill-opacity:1;fill-rule:nonzero;stroke:#ffffff;stroke-width:1.07000005;stroke-linecap:round;stroke-linejoin:round;stroke-miterlimit:10;stroke-dasharray:none;stroke-opacity:1"
         d="M 0,0 H 432 V 144 H 0 Z" /></g><g
       id="g36" /><g
       id="g38"><g
         clip-path="url(#clipPath44)"
         id="g40"><path
           id="path46"
           style="fill:#ffffff;fill-opacity:1;fill-rule:nonzero;stroke:none"
           d="m 88.66,39.25 h 337.86 v 99.27 H 88.66 Z" /><path
           id="path48"
           style="fill:none;stroke:#ebebeb;stroke-width:0.52999997;stroke-linecap:butt;stroke-linejoin:round;stroke-miterlimit:10;stroke-dasharray:none;stroke-opacity:1"
           d="m 142.41,39.25 v 99.27" /><path
           id="path50"
           style="fill:none;stroke:#ebebeb;stroke-width:0.52999997;stroke-linecap:butt;stroke-linejoin:round;stroke-miterlimit:10;stroke-dasharray:none;stroke-opacity:1"
           d="m 219.19,39.25 v 99.27" /><path
           id="path52"
           style="fill:none;stroke:#ebebeb;stroke-width:0.52999997;stroke-linecap:butt;stroke-linejoin:round;stroke-miterlimit:10;stroke-dasharray:none;stroke-opacity:1"
           d="m 295.98,39.25 v 99.27" /><path
           id="path54"
           style="fill:none;stroke:#ebebeb;stroke-width:0.52999997;stroke-linecap:butt;stroke-linejoin:round;stroke-miterlimit:10;stroke-dasharray:none;stroke-opacity:1"
           d="m 372.77,39.25 v 99.27" /><path
           id="path56"
           style="fill:none;stroke:#ebebeb;stroke-width:1.07000005;stroke-linecap:butt;stroke-linejoin:round;stroke-miterlimit:10;stroke-dasharray:none;stroke-opacity:1"
           d="M 88.66,66.33 H 426.52" /><path
           id="path58"
           style="fill:none;stroke:#ebebeb;stroke-width:1.07000005;stroke-linecap:butt;stroke-linejoin:round;stroke-miterlimit:10;stroke-dasharray:none;stroke-opacity:1"
           d="M 88.66,111.45 H 426.52" /><path
           id="path60"
           style="fill:none;stroke:#ebebeb;stroke-width:1.07000005;stroke-linecap:butt;stroke-linejoin:round;stroke-miterlimit:10;stroke-dasharray:none;stroke-opacity:1"
           d="m 104.01,39.25 v 99.27" /><path
           id="path62"
           style="fill:none;stroke:#ebebeb;stroke-width:1.07000005;stroke-linecap:butt;stroke-linejoin:round;stroke-miterlimit:10;stroke-dasharray:none;stroke-opacity:1"
           d="m 180.8,39.25 v 99.27" /><path
           id="path64"
           style="fill:none;stroke:#ebebeb;stroke-width:1.07000005;stroke-linecap:butt;stroke-linejoin:round;stroke-miterlimit:10;stroke-dasharray:none;stroke-opacity:1"
           d="m 257.59,39.25 v 99.27" /><path
           id="path66"
           style="fill:none;stroke:#ebebeb;stroke-width:1.07000005;stroke-linecap:butt;stroke-linejoin:round;stroke-miterlimit:10;stroke-dasharray:none;stroke-opacity:1"
           d="m 334.38,39.25 v 99.27" /><path
           id="path68"
           style="fill:none;stroke:#ebebeb;stroke-width:1.07000005;stroke-linecap:butt;stroke-linejoin:round;stroke-miterlimit:10;stroke-dasharray:none;stroke-opacity:1"
           d="m 411.16,39.25 v 99.27" /><path
           id="path70"
           style="fill:#ffffff;fill-opacity:1;fill-rule:nonzero;stroke:#333333;stroke-width:1.07000005;stroke-linecap:round;stroke-linejoin:round;stroke-miterlimit:10;stroke-dasharray:none;stroke-opacity:1"
           d="m 109.77,64.1 0.47,-0.06 0.48,-0.05 0.48,-0.05 0.47,-0.05 0.48,-0.06 0.48,-0.05 0.48,-0.05 0.47,-0.05 0.48,-0.05 0.48,-0.05 0.47,-0.06 0.48,-0.05 0.48,-0.05 0.48,-0.05 0.47,-0.05 0.48,-0.04 0.48,-0.05 0.48,-0.05 0.47,-0.05 0.48,-0.05 0.48,-0.04 0.47,-0.05 0.48,-0.05 0.48,-0.04 0.48,-0.05 0.47,-0.04 0.48,-0.05 0.48,-0.04 0.48,-0.05 0.47,-0.04 0.48,-0.04 0.48,-0.05 0.47,-0.04 0.48,-0.04 0.48,-0.04 0.48,-0.05 0.47,-0.04 0.48,-0.04 0.48,-0.04 0.48,-0.04 0.47,-0.04 0.48,-0.04 0.48,-0.04 0.47,-0.04 0.48,-0.04 0.48,-0.04 0.48,-0.04 0.47,-0.03 0.48,-0.04 0.48,-0.04 0.48,-0.04 0.47,-0.04 0.48,-0.03 0.48,-0.04 0.47,-0.04 0.48,-0.04 0.48,-0.03 0.48,-0.04 0.47,-0.04 0.48,-0.03 0.48,-0.04 0.48,-0.04 0.47,-0.03 0.48,-0.04 0.48,-0.04 0.47,-0.03 0.48,-0.04 0.48,-0.04 0.48,-0.03 0.47,-0.04 0.48,-0.03 0.48,-0.04 0.47,-0.04 0.48,-0.03 0.48,-0.04 0.48,-0.04 0.47,-0.03 0.48,-0.04 0.48,-0.03 0.48,-0.04 0.47,-0.04 0.48,-0.03 0.48,-0.04 0.47,-0.04 0.48,-0.04 0.48,-0.03 0.48,-0.04 0.47,-0.04 0.48,-0.03 0.48,-0.04 0.48,-0.04 0.47,-0.04 0.48,-0.04 0.48,-0.04 0.47,-0.04 0.48,-0.03 0.48,-0.04 0.48,-0.04 0.47,-0.04 0.48,-0.04 0.48,-0.04 0.48,-0.04 0.47,-0.04 0.48,-0.04 0.48,-0.04 0.47,-0.04 0.48,-0.04 0.48,-0.04 0.48,-0.04 0.47,-0.04 0.48,-0.04 0.48,-0.04 0.48,-0.04 0.47,-0.04 0.48,-0.04 0.48,-0.04 0.47,-0.04 0.48,-0.03 0.48,-0.04 0.48,-0.04 0.47,-0.03 0.48,-0.04 0.48,-0.03 0.48,-0.03 0.47,-0.03 0.48,-0.03 0.48,-0.03 0.47,-0.03 0.48,-0.03 0.48,-0.02 0.48,-0.03 0.47,-0.02 0.48,-0.02 0.48,-0.02 0.48,-0.02 0.47,-0.01 0.48,-0.02 0.48,-0.01 0.47,-0.01 0.48,-0.01 0.48,-0.01 h 0.48 0.47 0.48 0.48 0.47 l 0.48,0.01 0.48,0.01 h 0.48 l 0.47,0.02 0.48,0.01 0.48,0.02 0.48,0.01 0.47,0.02 0.48,0.03 0.48,0.02 0.47,0.03 0.48,0.02 0.48,0.03 0.48,0.03 0.47,0.04 0.48,0.03 0.48,0.03 0.48,0.04 0.47,0.04 0.48,0.04 0.48,0.04 0.47,0.04 0.48,0.04 0.48,0.05 0.48,0.04 0.47,0.04 0.48,0.05 0.48,0.04 0.48,0.05 0.47,0.04 0.48,0.05 0.48,0.05 0.47,0.04 0.48,0.05 0.48,0.04 0.48,0.05 0.47,0.04 0.48,0.05 0.48,0.04 0.48,0.04 0.47,0.05 0.48,0.04 0.48,0.04 0.47,0.04 0.48,0.04 0.48,0.04 0.48,0.03 0.47,0.04 0.48,0.03 0.48,0.04 0.48,0.03 0.47,0.03 0.48,0.03 0.48,0.03 0.47,0.03 0.48,0.02 0.48,0.03 0.48,0.02 0.47,0.02 0.48,0.02 0.48,0.02 0.47,0.02 0.48,0.02 0.48,0.01 0.48,0.02 0.47,0.01 0.48,0.02 0.48,0.01 0.48,0.01 0.47,0.01 0.48,0.01 h 0.48 l 0.47,0.01 0.48,0.01 h 0.48 l 0.48,0.01 h 0.47 l 0.48,0.01 h 0.48 0.48 0.47 0.48 0.48 0.47 0.48 0.48 0.48 0.47 0.48 0.48 0.48 l 0.47,-0.01 h 0.48 0.48 0.47 l 0.48,-0.01 h 0.48 0.48 l 0.47,-0.01 h 0.48 0.48 0.48 l 0.47,-0.01 h 0.48 0.48 l 0.47,-0.01 h 0.48 0.48 0.48 l 0.47,-0.01 h 0.48 0.48 0.48 0.47 0.48 l 0.48,-0.01 h 0.47 0.48 0.48 0.48 0.47 0.48 0.48 0.47 0.48 0.48 0.48 0.47 0.48 0.48 0.48 0.47 0.48 0.48 l 0.47,0.01 h 0.48 0.48 0.48 l 0.47,0.01 h 0.48 0.48 l 0.48,0.01 h 0.47 0.48 l 0.48,0.01 h 0.47 l 0.48,0.01 h 0.48 l 0.48,0.01 h 0.47 l 0.48,0.01 0.48,0.01 h 0.48 l 0.47,0.01 0.48,0.01 0.48,0.01 0.47,0.01 0.48,0.01 0.48,0.01 0.48,0.01 0.47,0.01 0.48,0.01 0.48,0.01 0.48,0.01 0.47,0.02 0.48,0.01 0.48,0.02 0.47,0.01 0.48,0.02 0.48,0.02 0.48,0.02 0.47,0.01 0.48,0.02 0.48,0.02 0.48,0.03 0.47,0.02 0.48,0.02 0.48,0.03 0.47,0.02 0.48,0.03 0.48,0.02 0.48,0.03 0.47,0.03 0.48,0.03 0.48,0.03 0.48,0.03 0.47,0.04 0.48,0.03 0.48,0.04 0.47,0.03 0.48,0.04 0.48,0.04 0.48,0.04 0.47,0.04 0.48,0.04 0.48,0.04 0.47,0.05 0.48,0.04 0.48,0.05 0.48,0.04 0.47,0.05 0.48,0.05 0.48,0.05 0.48,0.05 0.47,0.05 0.48,0.05 0.48,0.05 0.47,0.05 0.48,0.06 0.48,0.05 0.48,0.06 0.47,0.05 0.48,0.06 0.48,0.05 0.48,0.06 0.47,0.06 0.48,0.05 0.48,0.06 0.47,0.06 0.48,0.06 0.48,0.05 0.48,0.06 0.47,0.06 0.48,0.06 0.48,0.06 0.48,0.06 0.47,0.05 0.48,0.06 0.48,0.06 0.47,0.06 0.48,0.05 0.48,0.06 0.48,0.05 0.47,0.06 0.48,0.06 0.48,0.05 0.48,0.05 0.47,0.06 0.48,0.05 0.48,0.05 0.47,0.05 0.48,0.05 0.48,0.05 0.48,0.05 0.47,0.05 0.48,0.05 0.48,0.05 0.48,0.04 0.47,0.05 0.48,0.04 0.48,0.04 0.47,0.04 0.48,0.05 0.48,0.04 0.48,0.03 0.47,0.04 0.48,0.04 0.48,0.03 0.47,0.04 0.48,0.03 0.48,0.03 0.48,0.03 0.47,0.03 0.48,0.03 0.48,0.03 0.48,0.03 0.47,0.02 0.48,0.02 0.48,0.03 0.47,0.02 0.48,0.02 0.48,0.02 0.48,0.02 0.47,0.01 0.48,0.02 0.48,0.01 0.48,0.02 0.47,0.01 0.48,0.01 0.48,0.01 0.47,0.01 0.48,0.01 h 0.48 l 0.48,0.01 h 0.47 l 0.48,0.01 h 0.48 0.48 0.47 l 0.48,0.01 h 0.48 l 0.47,-0.01 h 0.48 0.48 0.48 l 0.47,-0.01 h 0.48 0.48 l 0.48,-0.01 0.47,-0.01 h 0.48 l 0.48,-0.01 h 0.47 l 0.48,-0.01 0.48,-0.01 0.48,-0.01 h 0.47 l 0.48,-0.01 0.48,-0.01 0.48,-0.01 h 0.47 l 0.48,-0.01 0.48,-0.01 0.47,-0.01 h 0.48 l 0.48,-0.01 0.48,-0.01 h 0.47 l 0.48,-0.01 0.48,-0.01 h 0.47 l 0.48,-0.01 h 0.48 l 0.48,-0.01 h 0.47 0.48 l 0.48,-0.01 h 0.48 0.47 0.48 0.48 0.47 0.48 0.48 0.48 l 0.47,0.01 h 0.48 0.48 l 0.48,0.01 h 0.47 l 0.48,0.01 h 0.48 l 0.47,0.01 0.48,0.01 0.48,0.01 0.48,0.01 h 0.47 l 0.48,0.01 0.48,0.01 0.48,0.01 0.47,0.01 0.48,0.02 0.48,0.01 0.47,0.01 0.48,0.01 0.48,0.01 0.48,0.02 0.47,0.01 0.48,0.02 0.48,0.01 0.48,0.01 0.47,0.02 0.48,0.01 0.48,0.02 0.47,0.01 v 1.27 l -0.47,0.02 -0.48,0.01 -0.48,0.01 -0.47,0.02 -0.48,0.01 -0.48,0.02 -0.48,0.01 -0.47,0.01 -0.48,0.02 -0.48,0.01 -0.48,0.01 -0.47,0.01 -0.48,0.02 -0.48,0.01 -0.47,0.01 -0.48,0.01 -0.48,0.01 -0.48,0.01 -0.47,0.01 h -0.48 l -0.48,0.01 -0.48,0.01 -0.47,0.01 h -0.48 l -0.48,0.01 h -0.47 l -0.48,0.01 h -0.48 -0.48 l -0.47,0.01 h -0.48 -0.48 -0.48 -0.47 -0.48 -0.48 -0.47 -0.48 l -0.48,-0.01 h -0.48 -0.47 l -0.48,-0.01 h -0.48 l -0.48,-0.01 h -0.47 l -0.48,-0.01 h -0.48 l -0.47,-0.01 -0.48,-0.01 h -0.48 l -0.48,-0.01 -0.47,-0.01 -0.48,-0.01 h -0.48 l -0.47,-0.01 -0.48,-0.01 -0.48,-0.01 h -0.48 l -0.47,-0.01 -0.48,-0.01 -0.48,-0.01 h -0.48 l -0.47,-0.01 -0.48,-0.01 h -0.48 l -0.47,-0.01 h -0.48 l -0.48,-0.01 h -0.48 l -0.47,-0.01 h -0.48 -0.48 -0.48 -0.47 -0.48 -0.48 -0.47 -0.48 -0.48 l -0.48,0.01 h -0.47 l -0.48,0.01 -0.48,0.01 h -0.48 l -0.47,0.01 -0.48,0.01 -0.48,0.01 -0.47,0.02 -0.48,0.01 -0.48,0.01 -0.48,0.02 -0.47,0.02 -0.48,0.01 -0.48,0.02 -0.48,0.02 -0.47,0.02 -0.48,0.03 -0.48,0.02 -0.47,0.03 -0.48,0.02 -0.48,0.03 -0.48,0.03 -0.47,0.03 -0.48,0.03 -0.48,0.03 -0.48,0.03 -0.47,0.04 -0.48,0.03 -0.48,0.04 -0.47,0.04 -0.48,0.04 -0.48,0.04 -0.48,0.04 -0.47,0.04 -0.48,0.04 -0.48,0.05 -0.47,0.04 -0.48,0.05 -0.48,0.04 -0.48,0.05 -0.47,0.05 -0.48,0.05 -0.48,0.05 -0.48,0.05 -0.47,0.05 -0.48,0.05 -0.48,0.05 -0.47,0.06 -0.48,0.05 -0.48,0.06 -0.48,0.05 -0.47,0.06 -0.48,0.05 -0.48,0.06 -0.48,0.06 -0.47,0.05 -0.48,0.06 -0.48,0.06 -0.47,0.06 -0.48,0.05 -0.48,0.06 -0.48,0.06 -0.47,0.06 -0.48,0.06 -0.48,0.05 -0.48,0.06 -0.47,0.06 -0.48,0.06 -0.48,0.05 -0.47,0.06 -0.48,0.06 -0.48,0.05 -0.48,0.06 -0.47,0.05 -0.48,0.06 -0.48,0.05 -0.48,0.06 -0.47,0.05 -0.48,0.05 -0.48,0.05 -0.47,0.05 -0.48,0.05 -0.48,0.05 -0.48,0.05 -0.47,0.05 -0.48,0.04 -0.48,0.05 -0.48,0.04 -0.47,0.05 -0.48,0.04 -0.48,0.04 -0.47,0.04 -0.48,0.04 -0.48,0.04 -0.48,0.04 -0.47,0.03 -0.48,0.04 -0.48,0.03 -0.47,0.04 -0.48,0.03 -0.48,0.03 -0.48,0.03 -0.47,0.03 -0.48,0.03 -0.48,0.02 -0.48,0.03 -0.47,0.03 -0.48,0.02 -0.48,0.02 -0.47,0.03 -0.48,0.02 -0.48,0.02 -0.48,0.02 -0.47,0.02 -0.48,0.01 -0.48,0.02 -0.48,0.02 -0.47,0.01 -0.48,0.02 -0.48,0.01 -0.47,0.02 -0.48,0.01 -0.48,0.01 -0.48,0.01 -0.47,0.01 -0.48,0.01 -0.48,0.02 h -0.48 l -0.47,0.01 -0.48,0.01 -0.48,0.01 -0.47,0.01 h -0.48 l -0.48,0.01 -0.48,0.01 h -0.47 l -0.48,0.01 h -0.48 l -0.48,0.01 h -0.47 l -0.48,0.01 h -0.48 l -0.47,0.01 h -0.48 -0.48 l -0.48,0.01 h -0.47 -0.48 -0.48 l -0.48,0.01 h -0.47 -0.48 -0.48 -0.47 -0.48 -0.48 -0.48 -0.47 -0.48 -0.48 -0.48 -0.47 -0.48 -0.48 -0.47 -0.48 -0.48 -0.48 -0.47 -0.48 l -0.48,-0.01 h -0.47 -0.48 -0.48 -0.48 l -0.47,-0.01 h -0.48 -0.48 -0.48 l -0.47,-0.01 h -0.48 -0.48 -0.47 l -0.48,-0.01 h -0.48 -0.48 l -0.47,-0.01 h -0.48 -0.48 -0.48 l -0.47,-0.01 h -0.48 -0.48 -0.47 l -0.48,-0.01 h -0.48 -0.48 -0.47 -0.48 -0.48 -0.48 -0.47 -0.48 -0.48 -0.47 -0.48 l -0.48,0.01 h -0.48 -0.47 l -0.48,0.01 h -0.48 l -0.48,0.01 -0.47,0.01 h -0.48 l -0.48,0.01 -0.47,0.01 -0.48,0.01 -0.48,0.02 -0.48,0.01 -0.47,0.01 -0.48,0.02 -0.48,0.01 -0.48,0.02 -0.47,0.02 -0.48,0.02 -0.48,0.02 -0.47,0.02 -0.48,0.03 -0.48,0.02 -0.48,0.03 -0.47,0.02 -0.48,0.03 -0.48,0.03 -0.47,0.03 -0.48,0.04 -0.48,0.03 -0.48,0.03 -0.47,0.04 -0.48,0.04 -0.48,0.03 -0.48,0.04 -0.47,0.04 -0.48,0.04 -0.48,0.04 -0.47,0.05 -0.48,0.04 -0.48,0.04 -0.48,0.05 -0.47,0.04 -0.48,0.05 -0.48,0.04 -0.48,0.05 -0.47,0.05 -0.48,0.04 -0.48,0.05 -0.47,0.04 -0.48,0.05 -0.48,0.04 -0.48,0.05 -0.47,0.04 -0.48,0.05 -0.48,0.04 -0.48,0.04 -0.47,0.04 -0.48,0.04 -0.48,0.04 -0.47,0.04 -0.48,0.04 -0.48,0.03 -0.48,0.04 -0.47,0.03 -0.48,0.03 -0.48,0.03 -0.48,0.03 -0.47,0.02 -0.48,0.02 -0.48,0.03 -0.47,0.02 -0.48,0.01 -0.48,0.02 -0.48,0.01 -0.47,0.02 -0.48,0.01 h -0.48 l -0.48,0.01 h -0.47 l -0.48,0.01 -0.48,-0.01 h -0.47 -0.48 l -0.48,-0.01 -0.48,-0.01 -0.47,-0.01 -0.48,-0.01 -0.48,-0.01 -0.47,-0.02 -0.48,-0.02 -0.48,-0.02 -0.48,-0.02 -0.47,-0.02 -0.48,-0.02 -0.48,-0.03 -0.48,-0.03 -0.47,-0.02 -0.48,-0.03 -0.48,-0.03 -0.47,-0.04 -0.48,-0.03 -0.48,-0.03 -0.48,-0.04 -0.47,-0.03 -0.48,-0.04 -0.48,-0.03 -0.48,-0.04 -0.47,-0.04 -0.48,-0.04 -0.48,-0.04 -0.47,-0.04 -0.48,-0.03 -0.48,-0.04 -0.48,-0.04 -0.47,-0.04 -0.48,-0.04 -0.48,-0.04 -0.48,-0.05 -0.47,-0.04 -0.48,-0.04 -0.48,-0.04 -0.47,-0.04 -0.48,-0.04 -0.48,-0.04 -0.48,-0.04 -0.47,-0.04 -0.48,-0.03 -0.48,-0.04 -0.48,-0.04 -0.47,-0.04 -0.48,-0.04 -0.48,-0.04 -0.47,-0.04 -0.48,-0.04 -0.48,-0.03 -0.48,-0.04 -0.47,-0.04 -0.48,-0.04 -0.48,-0.03 -0.48,-0.04 -0.47,-0.04 -0.48,-0.03 -0.48,-0.04 -0.47,-0.04 -0.48,-0.03 -0.48,-0.04 -0.48,-0.04 -0.47,-0.03 -0.48,-0.04 -0.48,-0.04 -0.48,-0.03 -0.47,-0.04 -0.48,-0.03 -0.48,-0.04 -0.47,-0.04 -0.48,-0.03 -0.48,-0.04 -0.48,-0.03 -0.47,-0.04 -0.48,-0.04 -0.48,-0.03 -0.47,-0.04 -0.48,-0.04 -0.48,-0.03 -0.48,-0.04 -0.47,-0.04 -0.48,-0.03 -0.48,-0.04 -0.48,-0.04 -0.47,-0.04 -0.48,-0.03 -0.48,-0.04 -0.47,-0.04 -0.48,-0.04 -0.48,-0.04 -0.48,-0.03 -0.47,-0.04 -0.48,-0.04 -0.48,-0.04 -0.48,-0.04 -0.47,-0.04 -0.48,-0.04 -0.48,-0.04 -0.47,-0.04 -0.48,-0.04 -0.48,-0.04 -0.48,-0.04 -0.47,-0.04 -0.48,-0.04 -0.48,-0.05 -0.48,-0.04 -0.47,-0.04 -0.48,-0.04 -0.48,-0.05 -0.47,-0.04 -0.48,-0.05 -0.48,-0.04 -0.48,-0.04 -0.47,-0.05 -0.48,-0.05 -0.48,-0.04 -0.48,-0.05 -0.47,-0.04 -0.48,-0.05 -0.48,-0.05 -0.47,-0.05 -0.48,-0.05 -0.48,-0.04 -0.48,-0.05 -0.47,-0.05 -0.48,-0.05 -0.48,-0.05 -0.48,-0.05 -0.47,-0.05 -0.48,-0.06 -0.48,-0.05 -0.47,-0.05 -0.48,-0.05 -0.48,-0.05 -0.48,-0.05 -0.47,-0.06 -0.48,-0.05 -0.48,-0.05 -0.47,-0.05 z" /><path
           id="path72"
           style="fill:#ffffff;fill-opacity:1;fill-rule:nonzero;stroke:#333333;stroke-width:1.07000005;stroke-linecap:round;stroke-linejoin:round;stroke-miterlimit:10;stroke-dasharray:none;stroke-opacity:1"
           d="m 104.01,107.69 0.19,-0.12 0.18,-0.12 0.18,-0.12 0.19,-0.12 0.18,-0.13 0.19,-0.12 0.18,-0.13 0.18,-0.14 0.19,-0.13 0.18,-0.14 0.19,-0.14 0.18,-0.14 0.18,-0.14 0.19,-0.14 0.18,-0.15 0.18,-0.15 0.19,-0.15 0.18,-0.15 0.19,-0.16 0.18,-0.16 0.18,-0.16 0.19,-0.16 0.18,-0.16 0.18,-0.16 0.19,-0.17 0.18,-0.17 0.19,-0.17 0.18,-0.17 0.18,-0.17 0.19,-0.18 0.18,-0.17 0.19,-0.18 0.18,-0.18 0.18,-0.18 0.19,-0.18 0.18,-0.18 0.18,-0.18 0.19,-0.19 0.18,-0.18 0.19,-0.19 0.18,-0.19 0.18,-0.18 0.19,-0.19 0.18,-0.19 0.19,-0.19 0.18,-0.19 0.18,-0.19 0.19,-0.19 0.18,-0.19 0.18,-0.19 0.19,-0.18 0.18,-0.19 0.19,-0.19 0.18,-0.19 0.18,-0.19 0.19,-0.18 0.18,-0.19 0.18,-0.18 0.19,-0.19 0.18,-0.18 0.19,-0.18 0.18,-0.18 0.18,-0.18 0.19,-0.18 0.18,-0.18 0.19,-0.18 0.18,-0.17 0.18,-0.17 0.19,-0.17 0.18,-0.17 0.18,-0.17 0.19,-0.16 0.18,-0.17 0.19,-0.16 0.18,-0.16 0.18,-0.15 0.19,-0.16 0.18,-0.15 0.19,-0.15 0.18,-0.15 0.18,-0.15 0.19,-0.14 0.18,-0.14 0.18,-0.14 0.19,-0.13 0.18,-0.14 0.19,-0.13 0.18,-0.12 0.18,-0.13 0.19,-0.12 0.18,-0.12 0.19,-0.11 0.18,-0.12 0.18,-0.11 0.19,-0.1 0.18,-0.1 0.18,-0.1 0.19,-0.1 0.18,-0.09 0.19,-0.09 0.18,-0.08 0.18,-0.08 0.19,-0.08 0.18,-0.07 0.18,-0.07 0.19,-0.07 0.18,-0.06 0.19,-0.05 0.18,-0.05 0.18,-0.05 0.19,-0.04 0.18,-0.04 0.19,-0.03 0.18,-0.02 0.18,-0.02 0.19,-0.02 0.18,-0.01 0.18,-0.01 h 0.19 l 0.18,0.01 0.19,0.01 0.18,0.02 0.18,0.02 0.19,0.03 0.18,0.03 0.19,0.04 0.18,0.04 0.18,0.05 0.19,0.06 0.18,0.06 0.18,0.07 0.19,0.07 0.18,0.08 0.19,0.08 0.18,0.09 0.18,0.09 0.19,0.1 0.18,0.1 0.18,0.11 0.19,0.11 0.18,0.11 0.19,0.12 0.18,0.13 0.18,0.13 0.19,0.13 0.18,0.13 0.19,0.14 0.18,0.14 0.18,0.15 0.19,0.14 0.18,0.15 0.18,0.15 0.19,0.15 0.18,0.16 0.19,0.15 0.18,0.16 0.18,0.15 0.19,0.16 0.18,0.16 0.19,0.16 0.18,0.15 0.18,0.16 0.19,0.15 0.18,0.16 0.18,0.15 0.19,0.15 0.18,0.15 0.19,0.14 0.18,0.15 0.18,0.14 0.19,0.14 0.18,0.14 0.18,0.13 0.19,0.13 0.18,0.13 0.19,0.12 0.18,0.12 0.18,0.12 0.19,0.11 0.18,0.11 0.19,0.1 0.18,0.1 0.18,0.1 0.19,0.09 0.18,0.09 0.18,0.08 0.19,0.08 0.18,0.07 0.19,0.07 0.18,0.07 0.18,0.06 0.19,0.06 0.18,0.05 0.19,0.05 0.18,0.04 0.18,0.04 0.19,0.04 0.18,0.03 0.18,0.03 0.19,0.03 0.18,0.02 0.19,0.02 0.18,0.01 0.18,0.01 0.19,0.01 0.18,0.01 h 0.18 0.19 0.18 l 0.19,-0.01 0.18,-0.01 0.18,-0.01 0.19,-0.01 0.18,-0.02 0.19,-0.01 0.18,-0.02 0.18,-0.02 0.19,-0.02 0.18,-0.02 0.18,-0.03 0.19,-0.02 0.18,-0.03 0.19,-0.02 0.18,-0.03 0.18,-0.03 0.19,-0.02 0.18,-0.03 0.19,-0.03 0.18,-0.03 0.18,-0.03 0.19,-0.03 0.18,-0.03 0.18,-0.03 0.19,-0.03 0.18,-0.03 0.19,-0.03 0.18,-0.03 0.18,-0.03 0.19,-0.03 0.18,-0.02 0.18,-0.03 0.19,-0.03 0.18,-0.03 0.19,-0.02 0.18,-0.03 0.18,-0.02 0.19,-0.03 0.18,-0.02 0.19,-0.03 0.18,-0.02 0.18,-0.02 0.19,-0.02 0.18,-0.03 0.18,-0.02 0.19,-0.02 0.18,-0.02 0.19,-0.01 0.18,-0.02 0.18,-0.02 0.19,-0.02 0.18,-0.02 0.19,-0.01 0.18,-0.02 0.18,-0.01 0.19,-0.02 0.18,-0.01 0.18,-0.02 0.19,-0.01 0.18,-0.01 0.19,-0.01 0.18,-0.02 0.18,-0.01 0.19,-0.01 0.18,-0.01 0.18,-0.01 0.19,-0.01 0.18,-0.01 0.19,-0.01 h 0.18 l 0.18,-0.01 0.19,-0.01 0.18,-0.01 h 0.19 l 0.18,-0.01 h 0.18 0.19 l 0.18,-0.01 h 0.18 0.19 0.18 0.19 0.18 0.18 0.19 0.18 0.19 l 0.18,0.01 h 0.18 l 0.19,0.01 h 0.18 l 0.18,0.01 0.19,0.01 0.18,0.01 0.19,0.01 0.18,0.01 0.18,0.02 0.19,0.01 0.18,0.02 0.18,0.01 0.19,0.02 0.18,0.02 0.19,0.02 0.18,0.02 0.18,0.02 0.19,0.03 0.18,0.02 0.19,0.03 0.18,0.03 0.18,0.03 0.19,0.03 0.18,0.03 0.18,0.03 0.19,0.04 0.18,0.04 0.19,0.03 0.18,0.05 0.18,0.04 0.19,0.04 0.18,0.05 0.19,0.04 0.18,0.05 0.18,0.05 0.19,0.06 0.18,0.05 0.18,0.06 0.19,0.05 0.18,0.06 0.19,0.07 0.18,0.06 0.18,0.06 0.19,0.07 0.18,0.07 0.18,0.07 0.19,0.07 0.18,0.08 0.19,0.07 0.18,0.08 0.18,0.08 0.19,0.08 0.18,0.08 0.19,0.09 0.18,0.09 0.18,0.08 0.19,0.09 0.18,0.09 0.18,0.09 0.19,0.1 0.18,0.09 0.19,0.1 0.18,0.1 0.18,0.09 0.19,0.1 0.18,0.1 0.19,0.1 0.18,0.11 0.18,0.1 0.19,0.1 0.18,0.11 0.18,0.1 0.19,0.1 0.18,0.11 0.19,0.11 0.18,0.1 0.18,0.11 0.19,0.1 0.18,0.11 0.18,0.1 0.19,0.11 0.18,0.1 0.19,0.1 0.18,0.11 0.18,0.1 0.19,0.1 0.18,0.1 0.19,0.1 0.18,0.1 0.18,0.1 0.19,0.1 0.18,0.1 0.18,0.09 0.19,0.09 0.18,0.1 0.19,0.09 0.18,0.09 0.18,0.09 0.19,0.09 0.18,0.08 0.19,0.09 0.18,0.08 0.18,0.09 0.19,0.08 0.18,0.08 0.18,0.08 0.19,0.07 0.18,0.08 0.19,0.07 0.18,0.08 0.18,0.07 0.19,0.07 0.18,0.07 0.18,0.07 0.19,0.07 0.18,0.06 0.19,0.07 0.18,0.06 0.18,0.07 0.19,0.06 0.18,0.06 0.19,0.06 0.18,0.06 0.18,0.06 0.19,0.06 0.18,0.06 0.18,0.05 0.19,0.06 0.18,0.06 0.19,0.05 0.18,0.06 0.18,0.05 0.19,0.05 0.18,0.06 0.19,0.05 0.18,0.05 0.18,0.06 0.19,0.05 0.18,0.05 0.18,0.05 0.19,0.05 0.18,0.05 0.19,0.05 0.18,0.05 0.18,0.04 0.19,0.05 0.18,0.05 0.18,0.05 0.19,0.04 0.18,0.05 0.19,0.04 0.18,0.05 0.18,0.04 0.19,0.04 0.18,0.05 0.19,0.04 0.18,0.04 0.18,0.04 0.19,0.04 0.18,0.04 0.18,0.04 0.19,0.04 0.18,0.03 0.19,0.04 0.18,0.04 0.18,0.03 0.19,0.03 0.18,0.04 0.19,0.03 0.18,0.03 0.18,0.03 0.19,0.03 0.18,0.03 0.18,0.03 0.19,0.03 0.18,0.03 0.19,0.02 0.18,0.03 0.18,0.02 0.19,0.03 0.18,0.02 0.18,0.03 0.19,0.02 0.18,0.02 0.19,0.03 0.18,0.02 0.18,0.02 0.19,0.03 0.18,0.02 0.19,0.02 0.18,0.02 0.18,0.02 0.19,0.02 0.18,0.03 0.18,0.02 0.19,0.02 0.18,0.02 0.19,0.03 0.18,0.02 0.18,0.02 0.19,0.03 0.18,0.02 0.19,0.02 0.18,0.03 0.18,0.02 0.19,0.03 0.18,0.02 0.18,0.03 0.19,0.03 0.18,0.03 0.19,0.02 0.18,0.03 0.18,0.03 0.19,0.03 v 3.77 l -0.19,0.03 -0.18,0.03 -0.18,0.03 -0.19,0.03 -0.18,0.03 -0.19,0.02 -0.18,0.03 -0.18,0.03 -0.19,0.02 -0.18,0.03 -0.18,0.02 -0.19,0.03 -0.18,0.02 -0.19,0.02 -0.18,0.03 -0.18,0.02 -0.19,0.02 -0.18,0.02 -0.19,0.03 -0.18,0.02 -0.18,0.02 -0.19,0.02 -0.18,0.02 -0.18,0.03 -0.19,0.02 -0.18,0.02 -0.19,0.02 -0.18,0.02 -0.18,0.03 -0.19,0.02 -0.18,0.02 -0.19,0.03 -0.18,0.02 -0.18,0.03 -0.19,0.02 -0.18,0.03 -0.18,0.02 -0.19,0.03 -0.18,0.03 -0.19,0.02 -0.18,0.03 -0.18,0.03 -0.19,0.03 -0.18,0.03 -0.18,0.04 -0.19,0.03 -0.18,0.03 -0.19,0.03 -0.18,0.04 -0.18,0.03 -0.19,0.04 -0.18,0.04 -0.19,0.04 -0.18,0.03 -0.18,0.04 -0.19,0.04 -0.18,0.04 -0.18,0.05 -0.19,0.04 -0.18,0.04 -0.19,0.04 -0.18,0.05 -0.18,0.04 -0.19,0.05 -0.18,0.04 -0.19,0.05 -0.18,0.05 -0.18,0.04 -0.19,0.05 -0.18,0.05 -0.18,0.05 -0.19,0.05 -0.18,0.05 -0.19,0.05 -0.18,0.05 -0.18,0.05 -0.19,0.05 -0.18,0.05 -0.18,0.05 -0.19,0.06 -0.18,0.05 -0.19,0.05 -0.18,0.06 -0.18,0.05 -0.19,0.06 -0.18,0.05 -0.19,0.06 -0.18,0.06 -0.18,0.06 -0.19,0.05 -0.18,0.06 -0.18,0.06 -0.19,0.06 -0.18,0.07 -0.19,0.06 -0.18,0.06 -0.18,0.07 -0.19,0.06 -0.18,0.07 -0.19,0.07 -0.18,0.07 -0.18,0.07 -0.19,0.07 -0.18,0.07 -0.18,0.07 -0.19,0.08 -0.18,0.07 -0.19,0.08 -0.18,0.08 -0.18,0.08 -0.19,0.08 -0.18,0.08 -0.18,0.09 -0.19,0.08 -0.18,0.09 -0.19,0.09 -0.18,0.09 -0.18,0.09 -0.19,0.09 -0.18,0.09 -0.19,0.09 -0.18,0.1 -0.18,0.1 -0.19,0.09 -0.18,0.1 -0.18,0.1 -0.19,0.1 -0.18,0.1 -0.19,0.11 -0.18,0.1 -0.18,0.1 -0.19,0.1 -0.18,0.11 -0.19,0.1 -0.18,0.11 -0.18,0.1 -0.19,0.11 -0.18,0.1 -0.18,0.11 -0.19,0.11 -0.18,0.1 -0.19,0.1 -0.18,0.11 -0.18,0.1 -0.19,0.11 -0.18,0.1 -0.18,0.1 -0.19,0.1 -0.18,0.1 -0.19,0.1 -0.18,0.1 -0.18,0.1 -0.19,0.09 -0.18,0.1 -0.19,0.09 -0.18,0.09 -0.18,0.09 -0.19,0.09 -0.18,0.09 -0.18,0.09 -0.19,0.08 -0.18,0.08 -0.19,0.08 -0.18,0.08 -0.18,0.08 -0.19,0.08 -0.18,0.07 -0.19,0.07 -0.18,0.07 -0.18,0.07 -0.19,0.07 -0.18,0.07 -0.18,0.06 -0.19,0.06 -0.18,0.06 -0.19,0.06 -0.18,0.05 -0.18,0.06 -0.19,0.05 -0.18,0.05 -0.18,0.05 -0.19,0.05 -0.18,0.04 -0.19,0.05 -0.18,0.04 -0.18,0.04 -0.19,0.04 -0.18,0.04 -0.19,0.03 -0.18,0.04 -0.18,0.03 -0.19,0.03 -0.18,0.03 -0.18,0.03 -0.19,0.02 -0.18,0.03 -0.19,0.02 -0.18,0.03 -0.18,0.02 -0.19,0.02 -0.18,0.02 -0.19,0.01 -0.18,0.02 -0.18,0.01 -0.19,0.02 -0.18,0.01 -0.18,0.01 -0.19,0.01 -0.18,0.01 -0.19,0.01 -0.18,0.01 -0.18,0.01 h -0.19 l -0.18,0.01 h -0.18 -0.19 l -0.18,0.01 h -0.19 -0.18 -0.18 -0.19 -0.18 -0.19 l -0.18,-0.01 h -0.18 -0.19 l -0.18,-0.01 h -0.18 l -0.19,-0.01 -0.18,-0.01 h -0.19 l -0.18,-0.01 -0.18,-0.01 -0.19,-0.01 -0.18,-0.01 -0.19,-0.01 -0.18,-0.01 -0.18,-0.01 -0.19,-0.01 -0.18,-0.01 -0.18,-0.01 -0.19,-0.01 -0.18,-0.02 -0.19,-0.01 -0.18,-0.01 -0.18,-0.02 -0.19,-0.01 -0.18,-0.02 -0.18,-0.01 -0.19,-0.02 -0.18,-0.02 -0.19,-0.01 -0.18,-0.02 -0.18,-0.02 -0.19,-0.02 -0.18,-0.02 -0.19,-0.02 -0.18,-0.02 -0.18,-0.02 -0.19,-0.02 -0.18,-0.03 -0.18,-0.02 -0.19,-0.02 -0.18,-0.03 -0.19,-0.02 -0.18,-0.03 -0.18,-0.02 -0.19,-0.03 -0.18,-0.03 -0.19,-0.02 -0.18,-0.03 -0.18,-0.03 -0.19,-0.03 -0.18,-0.03 -0.18,-0.02 -0.19,-0.03 -0.18,-0.03 -0.19,-0.03 -0.18,-0.03 -0.18,-0.03 -0.19,-0.03 -0.18,-0.03 -0.18,-0.03 -0.19,-0.03 -0.18,-0.03 -0.19,-0.03 -0.18,-0.03 -0.18,-0.02 -0.19,-0.03 -0.18,-0.03 -0.19,-0.02 -0.18,-0.02 -0.18,-0.03 -0.19,-0.02 -0.18,-0.02 -0.18,-0.01 -0.19,-0.02 -0.18,-0.01 -0.19,-0.02 -0.18,-0.01 h -0.18 l -0.19,-0.01 h -0.18 -0.19 -0.18 -0.18 l -0.19,0.01 -0.18,0.01 -0.18,0.02 -0.19,0.02 -0.18,0.02 -0.19,0.02 -0.18,0.03 -0.18,0.03 -0.19,0.04 -0.18,0.04 -0.18,0.05 -0.19,0.05 -0.18,0.05 -0.19,0.06 -0.18,0.06 -0.18,0.06 -0.19,0.07 -0.18,0.08 -0.19,0.07 -0.18,0.09 -0.18,0.09 -0.19,0.09 -0.18,0.09 -0.18,0.1 -0.19,0.11 -0.18,0.11 -0.19,0.11 -0.18,0.11 -0.18,0.12 -0.19,0.13 -0.18,0.12 -0.19,0.13 -0.18,0.14 -0.18,0.13 -0.19,0.14 -0.18,0.15 -0.18,0.14 -0.19,0.15 -0.18,0.15 -0.19,0.15 -0.18,0.15 -0.18,0.15 -0.19,0.16 -0.18,0.15 -0.18,0.16 -0.19,0.16 -0.18,0.15 -0.19,0.16 -0.18,0.16 -0.18,0.15 -0.19,0.16 -0.18,0.15 -0.19,0.15 -0.18,0.15 -0.18,0.15 -0.19,0.15 -0.18,0.14 -0.18,0.14 -0.19,0.14 -0.18,0.14 -0.19,0.13 -0.18,0.13 -0.18,0.12 -0.19,0.12 -0.18,0.12 -0.19,0.11 -0.18,0.11 -0.18,0.1 -0.19,0.1 -0.18,0.09 -0.18,0.09 -0.19,0.08 -0.18,0.08 -0.19,0.07 -0.18,0.07 -0.18,0.06 -0.19,0.05 -0.18,0.05 -0.18,0.05 -0.19,0.04 -0.18,0.03 -0.19,0.03 -0.18,0.02 -0.18,0.02 -0.19,0.01 h -0.18 -0.19 -0.18 l -0.18,-0.01 -0.19,-0.02 -0.18,-0.02 -0.18,-0.03 -0.19,-0.03 -0.18,-0.04 -0.19,-0.04 -0.18,-0.04 -0.18,-0.05 -0.19,-0.06 -0.18,-0.06 -0.19,-0.06 -0.18,-0.07 -0.18,-0.07 -0.19,-0.08 -0.18,-0.08 -0.18,-0.09 -0.19,-0.08 -0.18,-0.1 -0.19,-0.09 -0.18,-0.1 -0.18,-0.1 -0.19,-0.11 -0.18,-0.11 -0.18,-0.11 -0.19,-0.12 -0.18,-0.11 -0.19,-0.13 -0.18,-0.12 -0.18,-0.13 -0.19,-0.13 -0.18,-0.13 -0.19,-0.14 -0.18,-0.14 -0.18,-0.14 -0.19,-0.14 -0.18,-0.15 -0.18,-0.14 -0.19,-0.15 -0.18,-0.16 -0.19,-0.15 -0.18,-0.16 -0.18,-0.16 -0.19,-0.16 -0.18,-0.16 -0.19,-0.17 -0.18,-0.16 -0.18,-0.17 -0.19,-0.17 -0.18,-0.18 -0.18,-0.17 -0.19,-0.18 -0.18,-0.17 -0.19,-0.18 -0.18,-0.18 -0.18,-0.18 -0.19,-0.18 -0.18,-0.19 -0.19,-0.18 -0.18,-0.19 -0.18,-0.18 -0.19,-0.19 -0.18,-0.19 -0.18,-0.18 -0.19,-0.19 -0.18,-0.19 -0.19,-0.19 -0.18,-0.19 -0.18,-0.19 -0.19,-0.19 -0.18,-0.19 -0.18,-0.19 -0.19,-0.18 -0.18,-0.19 -0.19,-0.19 -0.18,-0.19 -0.18,-0.18 -0.19,-0.19 -0.18,-0.19 -0.19,-0.18 -0.18,-0.18 -0.18,-0.19 -0.19,-0.18 -0.18,-0.18 -0.18,-0.18 -0.19,-0.17 -0.18,-0.18 -0.19,-0.17 -0.18,-0.18 -0.18,-0.17 -0.19,-0.17 -0.18,-0.17 -0.19,-0.16 -0.18,-0.17 -0.18,-0.16 -0.19,-0.16 -0.18,-0.16 -0.18,-0.16 -0.19,-0.15 -0.18,-0.15 -0.19,-0.15 -0.18,-0.15 -0.18,-0.15 -0.19,-0.15 -0.18,-0.14 -0.18,-0.14 -0.19,-0.14 -0.18,-0.13 -0.19,-0.14 -0.18,-0.13 -0.18,-0.13 -0.19,-0.13 -0.18,-0.12 -0.19,-0.13 -0.18,-0.12 -0.18,-0.12 -0.19,-0.11 z" /><path
           id="path74"
           style="fill:none;stroke:#333333;stroke-width:1.07000005;stroke-linecap:butt;stroke-linejoin:round;stroke-miterlimit:10;stroke-dasharray:none;stroke-opacity:1"
           d="M 246.66,66.33 H 353.64" /><path
           id="path76"
           style="fill:none;stroke:#333333;stroke-width:1.07000005;stroke-linecap:butt;stroke-linejoin:round;stroke-miterlimit:10;stroke-dasharray:none;stroke-opacity:1"
           d="M 162.68,66.33 H 109.77" /><path
           id="path78"
           style="fill:#ffffff;fill-opacity:1;fill-rule:nonzero;stroke:#333333;stroke-width:1.07000005;stroke-linecap:round;stroke-linejoin:round;stroke-miterlimit:10;stroke-dasharray:none;stroke-opacity:1"
           d="m 246.66,64.07 h -83.98 v 4.51 h 83.98 z" /><path
           id="path80"
           style="fill:none;stroke:#333333;stroke-width:2.13000011;stroke-linecap:butt;stroke-linejoin:round;stroke-miterlimit:10;stroke-dasharray:none;stroke-opacity:1"
           d="m 196.62,64.07 v 4.51" /><path
           id="path82"
           style="fill:none;stroke:#333333;stroke-width:1.07000005;stroke-linecap:butt;stroke-linejoin:round;stroke-miterlimit:10;stroke-dasharray:none;stroke-opacity:1"
           d="m 160.67,111.45 h 37.28" /><path
           id="path84"
           style="fill:none;stroke:#333333;stroke-width:1.07000005;stroke-linecap:butt;stroke-linejoin:round;stroke-miterlimit:10;stroke-dasharray:none;stroke-opacity:1"
           d="M 124.89,111.45 H 104.01" /><path
           id="path86"
           style="fill:#ffffff;fill-opacity:1;fill-rule:nonzero;stroke:#333333;stroke-width:1.07000005;stroke-linecap:round;stroke-linejoin:round;stroke-miterlimit:10;stroke-dasharray:none;stroke-opacity:1"
           d="m 160.67,109.19 h -35.78 v 4.51 h 35.78 z" /><path
           id="path88"
           style="fill:none;stroke:#333333;stroke-width:2.13000011;stroke-linecap:butt;stroke-linejoin:round;stroke-miterlimit:10;stroke-dasharray:none;stroke-opacity:1"
           d="m 139.8,109.19 v 4.51" /><path
           id="path90"
           style="fill:none;stroke:#333333;stroke-width:1.07000005;stroke-linecap:round;stroke-linejoin:round;stroke-miterlimit:10;stroke-dasharray:none;stroke-opacity:1"
           d="m 88.66,39.25 h 337.86 v 99.27 H 88.66 Z" /></g></g><g
       id="g92" /><g
       id="g94" /><g
       id="g96" /><g
       id="g98" /><g
       id="g100" /><g
       id="g102" /><g
       id="g104" /><g
       id="g106" /><g
       id="g108" /><g
       id="g110" /><g
       id="g112" /><g
       id="g114" /><g
       id="g116" /><g
       id="g118" /><g
       id="g120" /><g
       id="g122"><text
         id="text126"
         style="font-variant:normal;font-weight:normal;font-size:13px;font-family:Helvetica;-inkscape-font-specification:Helvetica;writing-mode:lr-tb;fill:#4d4d4d;fill-opacity:1;fill-rule:nonzero;stroke:none"
         transform="matrix(1,0,0,-1,26.36,61.66)"><tspan
           id="tspan124"
           y="0"
           x="0 3.6140001 6.5 9.3859997 16.978001 20.202 27.43 32.084 42.912998 50.140999">Ill−formed</tspan></text>
<text
         id="text130"
         style="font-variant:normal;font-weight:normal;font-size:13px;font-family:Helvetica;-inkscape-font-specification:Helvetica;writing-mode:lr-tb;fill:#4d4d4d;fill-opacity:1;fill-rule:nonzero;stroke:none"
         transform="matrix(1,0,0,-1,10.86,106.78)"><tspan
           id="tspan128"
           y="0"
           x="0 11.882 19.110001 21.996 24.882 32.473999 35.698002 42.925999 47.580002 58.409 65.637001">Well−formed</tspan></text>
</g><g
       id="g132" /><g
       id="g134"><path
         id="path136"
         style="fill:none;stroke:#333333;stroke-width:1.07000005;stroke-linecap:butt;stroke-linejoin:round;stroke-miterlimit:10;stroke-dasharray:none;stroke-opacity:1"
         d="m 85.92,66.33 h 2.74" /><path
         id="path138"
         style="fill:none;stroke:#333333;stroke-width:1.07000005;stroke-linecap:butt;stroke-linejoin:round;stroke-miterlimit:10;stroke-dasharray:none;stroke-opacity:1"
         d="m 85.92,111.45 h 2.74" /></g><g
       id="g140" /><g
       id="g142" /><g
       id="g144" /><g
       id="g146" /><g
       id="g148" /><g
       id="g150" /><g
       id="g152" /><g
       id="g154" /><g
       id="g156" /><g
       id="g158"><path
         id="path160"
         style="fill:none;stroke:#333333;stroke-width:1.07000005;stroke-linecap:butt;stroke-linejoin:round;stroke-miterlimit:10;stroke-dasharray:none;stroke-opacity:1"
         d="m 104.01,36.51 v 2.74" /><path
         id="path162"
         style="fill:none;stroke:#333333;stroke-width:1.07000005;stroke-linecap:butt;stroke-linejoin:round;stroke-miterlimit:10;stroke-dasharray:none;stroke-opacity:1"
         d="m 180.8,36.51 v 2.74" /><path
         id="path164"
         style="fill:none;stroke:#333333;stroke-width:1.07000005;stroke-linecap:butt;stroke-linejoin:round;stroke-miterlimit:10;stroke-dasharray:none;stroke-opacity:1"
         d="m 257.59,36.51 v 2.74" /><path
         id="path166"
         style="fill:none;stroke:#333333;stroke-width:1.07000005;stroke-linecap:butt;stroke-linejoin:round;stroke-miterlimit:10;stroke-dasharray:none;stroke-opacity:1"
         d="m 334.38,36.51 v 2.74" /><path
         id="path168"
         style="fill:none;stroke:#333333;stroke-width:1.07000005;stroke-linecap:butt;stroke-linejoin:round;stroke-miterlimit:10;stroke-dasharray:none;stroke-opacity:1"
         d="m 411.16,36.51 v 2.74" /></g><g
       id="g170" /><g
       id="g172"><text
         id="text176"
         style="font-variant:normal;font-weight:normal;font-size:13px;font-family:Helvetica;-inkscape-font-specification:Helvetica;writing-mode:lr-tb;fill:#4d4d4d;fill-opacity:1;fill-rule:nonzero;stroke:none"
         transform="matrix(1,0,0,-1,91.36,24.99)"><tspan
           id="tspan174"
           y="0"
           x="0 7.2280002 10.842 18.07">0.00</tspan></text>
<text
         id="text180"
         style="font-variant:normal;font-weight:normal;font-size:13px;font-family:Helvetica;-inkscape-font-specification:Helvetica;writing-mode:lr-tb;fill:#4d4d4d;fill-opacity:1;fill-rule:nonzero;stroke:none"
         transform="matrix(1,0,0,-1,168.15,24.99)"><tspan
           id="tspan178"
           y="0"
           x="0 7.2280002 10.842 18.07">0.25</tspan></text>
<text
         id="text184"
         style="font-variant:normal;font-weight:normal;font-size:13px;font-family:Helvetica;-inkscape-font-specification:Helvetica;writing-mode:lr-tb;fill:#4d4d4d;fill-opacity:1;fill-rule:nonzero;stroke:none"
         transform="matrix(1,0,0,-1,244.94,24.99)"><tspan
           id="tspan182"
           y="0"
           x="0 7.2280002 10.842 18.07">0.50</tspan></text>
<text
         id="text188"
         style="font-variant:normal;font-weight:normal;font-size:13px;font-family:Helvetica;-inkscape-font-specification:Helvetica;writing-mode:lr-tb;fill:#4d4d4d;fill-opacity:1;fill-rule:nonzero;stroke:none"
         transform="matrix(1,0,0,-1,321.73,24.99)"><tspan
           id="tspan186"
           y="0"
           x="0 7.2280002 10.842 18.07">0.75</tspan></text>
<text
         id="text192"
         style="font-variant:normal;font-weight:normal;font-size:13px;font-family:Helvetica;-inkscape-font-specification:Helvetica;writing-mode:lr-tb;fill:#4d4d4d;fill-opacity:1;fill-rule:nonzero;stroke:none"
         transform="matrix(1,0,0,-1,398.51,24.99)"><tspan
           id="tspan190"
           y="0"
           x="0 7.2280002 10.842 18.07">1.00</tspan></text>
</g><g
       id="g194" /><g
       id="g196" /><g
       id="g198" /><g
       id="g200" /><g
       id="g202" /><g
       id="g204"><text
         id="text208"
         style="font-variant:normal;font-weight:normal;font-size:16px;font-family:Helvetica;-inkscape-font-specification:Helvetica;writing-mode:lr-tb;fill:#000000;fill-opacity:1;fill-rule:nonzero;stroke:none"
         transform="matrix(1,0,0,-1,156.78,8.12)"><tspan
           id="tspan206"
           y="0"
           x="0 10.032 18.927999 22.48 27.808001 39.360001 42.911999 50.911999 59.807999 64.255997 73.152 82.047997 90.944 99.519997 107.52 111.072 119.968 125.136 134.032 137.584 142.032 150.92799 154.48 162.48 166.92799 175.82401 184.72 192.72">Pairwise behavioral distance</tspan></text>
</g><g
       id="g210" /><g
       id="g212" /><g
       id="g214" /><g
       id="g216" /><g
       id="g218" /><g
       id="g220" /><g
       id="g222" /><g
       id="g224" /><g
       id="g226" /><g
       id="g228" /><g
       id="g230" /><g
       id="g232" /><g
       id="g234" /><g
       id="g236" /></g></svg>